<mxfile host="app.diagrams.net" modified="2023-07-30T11:11:14.508Z" agent="Mozilla/5.0 (Windows NT 10.0; Win64; x64) AppleWebKit/537.36 (KHTML, like Gecko) Chrome/115.0.0.0 Safari/537.36" etag="DZIj05WzZGUyN2jtnPxg" version="21.6.6" type="github">
  <diagram name="Page-1" id="0783ab3e-0a74-02c8-0abd-f7b4e66b4bec">
    <mxGraphModel dx="1259" dy="666" grid="1" gridSize="10" guides="1" tooltips="1" connect="1" arrows="1" fold="1" page="1" pageScale="1" pageWidth="850" pageHeight="1100" background="none" math="0" shadow="0">
      <root>
        <mxCell id="0" />
        <mxCell id="1" parent="0" />
        <mxCell id="VCVexrJ7ouCOHGcPG9V7-2" value="" style="edgeStyle=orthogonalEdgeStyle;rounded=0;orthogonalLoop=1;jettySize=auto;html=1;" parent="1" source="VCVexrJ7ouCOHGcPG9V7-3" target="VCVexrJ7ouCOHGcPG9V7-4" edge="1">
          <mxGeometry relative="1" as="geometry" />
        </mxCell>
        <mxCell id="VCVexrJ7ouCOHGcPG9V7-3" value="" style="ellipse;fillColor=strokeColor;html=1;" parent="1" vertex="1">
          <mxGeometry x="405" y="20" width="30" height="30" as="geometry" />
        </mxCell>
        <mxCell id="VCVexrJ7ouCOHGcPG9V7-4" value="Delivery Note No" style="rounded=1;whiteSpace=wrap;html=1;arcSize=40;fontColor=#000000;fillColor=#ffffc0;strokeColor=#ff0000;" parent="1" vertex="1">
          <mxGeometry x="360" y="80" width="120" height="40" as="geometry" />
        </mxCell>
        <mxCell id="VCVexrJ7ouCOHGcPG9V7-5" value="" style="edgeStyle=orthogonalEdgeStyle;html=1;verticalAlign=bottom;endArrow=open;endSize=8;strokeColor=#ff0000;rounded=0;entryX=0.5;entryY=0;entryDx=0;entryDy=0;" parent="1" source="VCVexrJ7ouCOHGcPG9V7-4" target="VCVexrJ7ouCOHGcPG9V7-12" edge="1">
          <mxGeometry relative="1" as="geometry">
            <mxPoint x="425" y="180" as="targetPoint" />
          </mxGeometry>
        </mxCell>
        <mxCell id="VCVexrJ7ouCOHGcPG9V7-6" value="" style="edgeStyle=orthogonalEdgeStyle;rounded=0;orthogonalLoop=1;jettySize=auto;html=1;" parent="1" source="VCVexrJ7ouCOHGcPG9V7-7" target="VCVexrJ7ouCOHGcPG9V7-20" edge="1">
          <mxGeometry relative="1" as="geometry" />
        </mxCell>
        <mxCell id="VCVexrJ7ouCOHGcPG9V7-7" value="Enter Customer Name" style="rounded=1;whiteSpace=wrap;html=1;arcSize=40;fontColor=#000000;fillColor=#ffffc0;strokeColor=#ff0000;" parent="1" vertex="1">
          <mxGeometry x="360" y="290" width="120" height="40" as="geometry" />
        </mxCell>
        <mxCell id="VCVexrJ7ouCOHGcPG9V7-8" value="appears automatically" style="shape=note2;boundedLbl=1;whiteSpace=wrap;html=1;size=25;verticalAlign=top;align=center;" parent="1" vertex="1">
          <mxGeometry x="550" y="70" width="120" height="60" as="geometry" />
        </mxCell>
        <mxCell id="VCVexrJ7ouCOHGcPG9V7-9" value="" style="endArrow=none;dashed=1;html=1;dashPattern=1 3;strokeWidth=2;rounded=0;entryX=0;entryY=0.5;entryDx=0;entryDy=0;entryPerimeter=0;exitX=1;exitY=0.5;exitDx=0;exitDy=0;" parent="1" source="VCVexrJ7ouCOHGcPG9V7-4" target="VCVexrJ7ouCOHGcPG9V7-8" edge="1">
          <mxGeometry width="50" height="50" relative="1" as="geometry">
            <mxPoint x="500" y="250" as="sourcePoint" />
            <mxPoint x="550" y="200" as="targetPoint" />
          </mxGeometry>
        </mxCell>
        <mxCell id="VCVexrJ7ouCOHGcPG9V7-10" value="" style="edgeStyle=orthogonalEdgeStyle;rounded=0;orthogonalLoop=1;jettySize=auto;html=1;entryX=0;entryY=0.5;entryDx=0;entryDy=0;" parent="1" source="VCVexrJ7ouCOHGcPG9V7-12" target="VCVexrJ7ouCOHGcPG9V7-15" edge="1">
          <mxGeometry relative="1" as="geometry">
            <mxPoint x="260" y="250" as="targetPoint" />
          </mxGeometry>
        </mxCell>
        <mxCell id="VCVexrJ7ouCOHGcPG9V7-11" value="yse" style="edgeLabel;html=1;align=center;verticalAlign=middle;resizable=0;points=[];" parent="VCVexrJ7ouCOHGcPG9V7-10" vertex="1" connectable="0">
          <mxGeometry x="-0.7629" y="1" relative="1" as="geometry">
            <mxPoint as="offset" />
          </mxGeometry>
        </mxCell>
        <mxCell id="VCVexrJ7ouCOHGcPG9V7-12" value="Modify" style="rhombus;whiteSpace=wrap;html=1;fontColor=#000000;fillColor=#ffffc0;strokeColor=#ff0000;" parent="1" vertex="1">
          <mxGeometry x="380" y="180" width="80" height="40" as="geometry" />
        </mxCell>
        <mxCell id="VCVexrJ7ouCOHGcPG9V7-13" value="" style="edgeStyle=orthogonalEdgeStyle;html=1;align=left;verticalAlign=bottom;endArrow=open;endSize=8;strokeColor=#ff0000;rounded=0;entryX=0.5;entryY=0;entryDx=0;entryDy=0;exitX=0.5;exitY=1;exitDx=0;exitDy=0;" parent="1" source="VCVexrJ7ouCOHGcPG9V7-12" target="VCVexrJ7ouCOHGcPG9V7-7" edge="1">
          <mxGeometry x="-1" relative="1" as="geometry">
            <mxPoint x="100" y="220" as="targetPoint" />
            <mxPoint x="380" y="230" as="sourcePoint" />
          </mxGeometry>
        </mxCell>
        <mxCell id="VCVexrJ7ouCOHGcPG9V7-14" value="no" style="edgeLabel;html=1;align=center;verticalAlign=middle;resizable=0;points=[];" parent="VCVexrJ7ouCOHGcPG9V7-13" vertex="1" connectable="0">
          <mxGeometry x="-0.4981" relative="1" as="geometry">
            <mxPoint as="offset" />
          </mxGeometry>
        </mxCell>
        <mxCell id="VCVexrJ7ouCOHGcPG9V7-15" value="Modify Delivery Note No" style="rounded=1;whiteSpace=wrap;html=1;arcSize=40;fontColor=#000000;fillColor=#ffffc0;strokeColor=#ff0000;" parent="1" vertex="1">
          <mxGeometry x="180" y="290" width="120" height="40" as="geometry" />
        </mxCell>
        <mxCell id="VCVexrJ7ouCOHGcPG9V7-16" value="" style="edgeStyle=orthogonalEdgeStyle;html=1;verticalAlign=bottom;endArrow=open;endSize=8;strokeColor=#ff0000;rounded=0;entryX=0;entryY=0.5;entryDx=0;entryDy=0;" parent="1" source="VCVexrJ7ouCOHGcPG9V7-15" target="VCVexrJ7ouCOHGcPG9V7-7" edge="1">
          <mxGeometry relative="1" as="geometry">
            <mxPoint x="160" y="370" as="targetPoint" />
          </mxGeometry>
        </mxCell>
        <mxCell id="VCVexrJ7ouCOHGcPG9V7-17" value="appears automatically&lt;br&gt;from customer table" style="shape=note2;boundedLbl=1;whiteSpace=wrap;html=1;size=25;verticalAlign=top;align=center;" parent="1" vertex="1">
          <mxGeometry x="550" y="280" width="120" height="60" as="geometry" />
        </mxCell>
        <mxCell id="VCVexrJ7ouCOHGcPG9V7-18" value="" style="endArrow=none;dashed=1;html=1;dashPattern=1 3;strokeWidth=2;rounded=0;entryX=1;entryY=0.5;entryDx=0;entryDy=0;exitX=0;exitY=0.5;exitDx=0;exitDy=0;exitPerimeter=0;" parent="1" source="VCVexrJ7ouCOHGcPG9V7-17" target="VCVexrJ7ouCOHGcPG9V7-7" edge="1">
          <mxGeometry width="50" height="50" relative="1" as="geometry">
            <mxPoint x="400" y="340" as="sourcePoint" />
            <mxPoint x="450" y="290" as="targetPoint" />
          </mxGeometry>
        </mxCell>
        <mxCell id="VCVexrJ7ouCOHGcPG9V7-19" value="" style="edgeStyle=orthogonalEdgeStyle;rounded=0;orthogonalLoop=1;jettySize=auto;html=1;" parent="1" source="VCVexrJ7ouCOHGcPG9V7-20" target="VCVexrJ7ouCOHGcPG9V7-23" edge="1">
          <mxGeometry relative="1" as="geometry" />
        </mxCell>
        <mxCell id="VCVexrJ7ouCOHGcPG9V7-20" value="Receipt voucher date" style="rounded=1;whiteSpace=wrap;html=1;arcSize=40;fontColor=#000000;fillColor=#ffffc0;strokeColor=#ff0000;" parent="1" vertex="1">
          <mxGeometry x="360" y="410" width="120" height="40" as="geometry" />
        </mxCell>
        <mxCell id="VCVexrJ7ouCOHGcPG9V7-23" value="container No" style="rounded=1;whiteSpace=wrap;html=1;arcSize=40;fontColor=#000000;fillColor=#ffffc0;strokeColor=#ff0000;" parent="1" vertex="1">
          <mxGeometry x="360" y="520" width="120" height="40" as="geometry" />
        </mxCell>
        <mxCell id="VCVexrJ7ouCOHGcPG9V7-26" value="auto fill for process details" style="rounded=1;whiteSpace=wrap;html=1;arcSize=40;fontColor=#000000;fillColor=#ffffc0;strokeColor=#ff0000;" parent="1" vertex="1">
          <mxGeometry x="365" y="680" width="120" height="40" as="geometry" />
        </mxCell>
        <mxCell id="VCVexrJ7ouCOHGcPG9V7-31" style="edgeStyle=none;rounded=0;html=1;labelBackgroundColor=none;startArrow=none;startFill=0;startSize=5;endArrow=classicThin;endFill=1;endSize=5;jettySize=auto;orthogonalLoop=1;strokeWidth=1;fontFamily=Verdana;fontSize=12" parent="1" target="VCVexrJ7ouCOHGcPG9V7-33" edge="1">
          <mxGeometry relative="1" as="geometry">
            <mxPoint x="436" y="560" as="sourcePoint" />
          </mxGeometry>
        </mxCell>
        <mxCell id="VCVexrJ7ouCOHGcPG9V7-32" style="edgeStyle=none;rounded=0;html=1;labelBackgroundColor=none;startArrow=none;startFill=0;startSize=5;endArrow=classicThin;endFill=1;endSize=5;jettySize=auto;orthogonalLoop=1;strokeWidth=1;fontFamily=Verdana;fontSize=12;entryX=0.5;entryY=0;entryDx=0;entryDy=0;" parent="1" source="VCVexrJ7ouCOHGcPG9V7-33" target="VCVexrJ7ouCOHGcPG9V7-26" edge="1">
          <mxGeometry relative="1" as="geometry">
            <mxPoint x="450" y="660" as="targetPoint" />
          </mxGeometry>
        </mxCell>
        <mxCell id="VCVexrJ7ouCOHGcPG9V7-33" value="transportation process" style="rounded=0;whiteSpace=wrap;html=1;shadow=0;comic=0;labelBackgroundColor=none;strokeWidth=1;fontFamily=Verdana;fontSize=12;align=center;arcSize=50;" parent="1" vertex="1">
          <mxGeometry x="435" y="590" width="125" height="40" as="geometry" />
        </mxCell>
        <mxCell id="VCVexrJ7ouCOHGcPG9V7-34" style="edgeStyle=none;rounded=0;html=1;dashed=1;labelBackgroundColor=none;startArrow=none;startFill=0;startSize=5;endArrow=oval;endFill=0;endSize=5;jettySize=auto;orthogonalLoop=1;strokeWidth=1;fontFamily=Verdana;fontSize=12" parent="1" source="VCVexrJ7ouCOHGcPG9V7-36" edge="1">
          <mxGeometry relative="1" as="geometry">
            <mxPoint x="412" y="560" as="targetPoint" />
          </mxGeometry>
        </mxCell>
        <mxCell id="VCVexrJ7ouCOHGcPG9V7-35" style="edgeStyle=none;rounded=0;html=1;dashed=1;labelBackgroundColor=none;startArrow=none;startFill=0;startSize=5;endArrow=oval;endFill=0;endSize=5;jettySize=auto;orthogonalLoop=1;strokeWidth=1;fontFamily=Verdana;fontSize=12" parent="1" source="VCVexrJ7ouCOHGcPG9V7-36" target="VCVexrJ7ouCOHGcPG9V7-33" edge="1">
          <mxGeometry relative="1" as="geometry" />
        </mxCell>
        <mxCell id="VCVexrJ7ouCOHGcPG9V7-36" value="appears list from transportation process table according to container No" style="shape=note;whiteSpace=wrap;html=1;rounded=0;shadow=0;comic=0;labelBackgroundColor=none;strokeWidth=1;fontFamily=Verdana;fontSize=12;align=center;size=20;" parent="1" vertex="1">
          <mxGeometry x="260" y="590" width="150" height="60" as="geometry" />
        </mxCell>
        <mxCell id="VCVexrJ7ouCOHGcPG9V7-39" style="edgeStyle=none;rounded=0;html=1;labelBackgroundColor=none;startArrow=none;startFill=0;startSize=5;endArrow=classicThin;endFill=1;endSize=5;jettySize=auto;orthogonalLoop=1;strokeWidth=1;fontFamily=Verdana;fontSize=12" parent="1" target="VCVexrJ7ouCOHGcPG9V7-41" edge="1">
          <mxGeometry relative="1" as="geometry">
            <mxPoint x="426" y="720" as="sourcePoint" />
          </mxGeometry>
        </mxCell>
        <mxCell id="VCVexrJ7ouCOHGcPG9V7-40" style="edgeStyle=none;rounded=0;html=1;labelBackgroundColor=none;startArrow=none;startFill=0;startSize=5;endArrow=classicThin;endFill=1;endSize=5;jettySize=auto;orthogonalLoop=1;strokeWidth=1;fontFamily=Verdana;fontSize=12;entryX=0.5;entryY=0;entryDx=0;entryDy=0;" parent="1" source="VCVexrJ7ouCOHGcPG9V7-41" target="VCVexrJ7ouCOHGcPG9V7-48" edge="1">
          <mxGeometry relative="1" as="geometry">
            <mxPoint x="415" y="840" as="targetPoint" />
          </mxGeometry>
        </mxCell>
        <mxCell id="VCVexrJ7ouCOHGcPG9V7-41" value="transportation process" style="rounded=0;whiteSpace=wrap;html=1;shadow=0;comic=0;labelBackgroundColor=none;strokeWidth=1;fontFamily=Verdana;fontSize=12;align=center;arcSize=50;" parent="1" vertex="1">
          <mxGeometry x="425" y="750" width="125" height="40" as="geometry" />
        </mxCell>
        <mxCell id="VCVexrJ7ouCOHGcPG9V7-42" style="edgeStyle=none;rounded=0;html=1;dashed=1;labelBackgroundColor=none;startArrow=none;startFill=0;startSize=5;endArrow=oval;endFill=0;endSize=5;jettySize=auto;orthogonalLoop=1;strokeWidth=1;fontFamily=Verdana;fontSize=12" parent="1" source="VCVexrJ7ouCOHGcPG9V7-44" edge="1">
          <mxGeometry relative="1" as="geometry">
            <mxPoint x="402" y="720" as="targetPoint" />
          </mxGeometry>
        </mxCell>
        <mxCell id="VCVexrJ7ouCOHGcPG9V7-43" style="edgeStyle=none;rounded=0;html=1;dashed=1;labelBackgroundColor=none;startArrow=none;startFill=0;startSize=5;endArrow=oval;endFill=0;endSize=5;jettySize=auto;orthogonalLoop=1;strokeWidth=1;fontFamily=Verdana;fontSize=12" parent="1" source="VCVexrJ7ouCOHGcPG9V7-44" target="VCVexrJ7ouCOHGcPG9V7-41" edge="1">
          <mxGeometry relative="1" as="geometry" />
        </mxCell>
        <mxCell id="VCVexrJ7ouCOHGcPG9V7-44" value="Import from transportation process table" style="shape=note;whiteSpace=wrap;html=1;rounded=0;shadow=0;comic=0;labelBackgroundColor=none;strokeWidth=1;fontFamily=Verdana;fontSize=12;align=center;size=20;" parent="1" vertex="1">
          <mxGeometry x="250" y="750" width="150" height="60" as="geometry" />
        </mxCell>
        <mxCell id="VCVexrJ7ouCOHGcPG9V7-55" value="" style="edgeStyle=orthogonalEdgeStyle;rounded=0;orthogonalLoop=1;jettySize=auto;html=1;" parent="1" source="VCVexrJ7ouCOHGcPG9V7-45" target="VCVexrJ7ouCOHGcPG9V7-53" edge="1">
          <mxGeometry relative="1" as="geometry" />
        </mxCell>
        <mxCell id="VCVexrJ7ouCOHGcPG9V7-45" value="Enter Unload Address" style="rounded=1;whiteSpace=wrap;html=1;arcSize=40;fontColor=#000000;fillColor=#ffffc0;strokeColor=#ff0000;" parent="1" vertex="1">
          <mxGeometry x="365" y="960" width="120" height="40" as="geometry" />
        </mxCell>
        <mxCell id="VCVexrJ7ouCOHGcPG9V7-46" value="" style="edgeStyle=orthogonalEdgeStyle;rounded=0;orthogonalLoop=1;jettySize=auto;html=1;entryX=0;entryY=0.5;entryDx=0;entryDy=0;" parent="1" source="VCVexrJ7ouCOHGcPG9V7-48" target="VCVexrJ7ouCOHGcPG9V7-51" edge="1">
          <mxGeometry relative="1" as="geometry">
            <mxPoint x="250" y="910" as="targetPoint" />
          </mxGeometry>
        </mxCell>
        <mxCell id="VCVexrJ7ouCOHGcPG9V7-47" value="yse" style="edgeLabel;html=1;align=center;verticalAlign=middle;resizable=0;points=[];" parent="VCVexrJ7ouCOHGcPG9V7-46" vertex="1" connectable="0">
          <mxGeometry x="-0.7629" y="1" relative="1" as="geometry">
            <mxPoint as="offset" />
          </mxGeometry>
        </mxCell>
        <mxCell id="VCVexrJ7ouCOHGcPG9V7-48" value="Modify" style="rhombus;whiteSpace=wrap;html=1;fontColor=#000000;fillColor=#ffffc0;strokeColor=#ff0000;" parent="1" vertex="1">
          <mxGeometry x="370" y="840" width="110" height="70" as="geometry" />
        </mxCell>
        <mxCell id="VCVexrJ7ouCOHGcPG9V7-49" value="" style="edgeStyle=orthogonalEdgeStyle;html=1;align=left;verticalAlign=bottom;endArrow=open;endSize=8;strokeColor=#ff0000;rounded=0;entryX=0.5;entryY=0;entryDx=0;entryDy=0;exitX=0.5;exitY=1;exitDx=0;exitDy=0;" parent="1" source="VCVexrJ7ouCOHGcPG9V7-48" target="VCVexrJ7ouCOHGcPG9V7-45" edge="1">
          <mxGeometry x="-1" relative="1" as="geometry">
            <mxPoint x="90" y="880" as="targetPoint" />
            <mxPoint x="370" y="890" as="sourcePoint" />
          </mxGeometry>
        </mxCell>
        <mxCell id="VCVexrJ7ouCOHGcPG9V7-50" value="no" style="edgeLabel;html=1;align=center;verticalAlign=middle;resizable=0;points=[];" parent="VCVexrJ7ouCOHGcPG9V7-49" vertex="1" connectable="0">
          <mxGeometry x="-0.4981" relative="1" as="geometry">
            <mxPoint as="offset" />
          </mxGeometry>
        </mxCell>
        <mxCell id="VCVexrJ7ouCOHGcPG9V7-51" value="Modify process details" style="rounded=1;whiteSpace=wrap;html=1;arcSize=40;fontColor=#000000;fillColor=#ffffc0;strokeColor=#ff0000;" parent="1" vertex="1">
          <mxGeometry x="180" y="960" width="120" height="40" as="geometry" />
        </mxCell>
        <mxCell id="VCVexrJ7ouCOHGcPG9V7-52" value="" style="edgeStyle=orthogonalEdgeStyle;html=1;verticalAlign=bottom;endArrow=open;endSize=8;strokeColor=#ff0000;rounded=0;entryX=0;entryY=0.5;entryDx=0;entryDy=0;" parent="1" source="VCVexrJ7ouCOHGcPG9V7-51" target="VCVexrJ7ouCOHGcPG9V7-45" edge="1">
          <mxGeometry relative="1" as="geometry">
            <mxPoint x="150" y="1030" as="targetPoint" />
          </mxGeometry>
        </mxCell>
        <mxCell id="VCVexrJ7ouCOHGcPG9V7-53" value="save" style="rounded=1;whiteSpace=wrap;html=1;arcSize=40;fontColor=#000000;fillColor=#ffffc0;strokeColor=#ff0000;" parent="1" vertex="1">
          <mxGeometry x="365" y="1050" width="120" height="40" as="geometry" />
        </mxCell>
        <mxCell id="VCVexrJ7ouCOHGcPG9V7-54" value="" style="edgeStyle=orthogonalEdgeStyle;html=1;verticalAlign=bottom;endArrow=open;endSize=8;strokeColor=#ff0000;rounded=0;entryX=0.5;entryY=0;entryDx=0;entryDy=0;" parent="1" source="VCVexrJ7ouCOHGcPG9V7-53" target="VCVexrJ7ouCOHGcPG9V7-56" edge="1">
          <mxGeometry relative="1" as="geometry">
            <mxPoint x="425" y="1150" as="targetPoint" />
          </mxGeometry>
        </mxCell>
        <mxCell id="VCVexrJ7ouCOHGcPG9V7-56" value="" style="ellipse;html=1;shape=endState;fillColor=strokeColor;" parent="1" vertex="1">
          <mxGeometry x="410" y="1140" width="30" height="30" as="geometry" />
        </mxCell>
      </root>
    </mxGraphModel>
  </diagram>
</mxfile>
